<svg xmlns="http://www.w3.org/2000/svg" xmlns:xlink="http://www.w3.org/1999/xlink" width="559" zoomAndPan="magnify" viewBox="0 0 419.25 297.75" height="397" preserveAspectRatio="xMidYMid meet" version="1.0"><defs><clipPath id="id1"><path d="M 0 0.140625 L 418.5 0.140625 L 418.5 297.359375 L 0 297.359375 Z M 0 0.140625 " clip-rule="nonzero"/></clipPath><clipPath id="id2"><path d="M 88 2.578125 L 369.660156 2.578125 L 369.660156 247.761719 L 88 247.761719 Z M 88 2.578125 " clip-rule="nonzero"/></clipPath><clipPath id="id3"><path d="M 57.097656 15.59375 L 334 15.59375 L 334 292.527344 L 57.097656 292.527344 Z M 57.097656 15.59375 " clip-rule="nonzero"/></clipPath></defs><g clip-path="url(#id1)"><path fill="rgb(100%, 100%, 100%)" d="M 0 0.140625 L 421.246094 0.140625 L 421.246094 305.957031 L 0 305.957031 Z M 0 0.140625 " fill-opacity="1" fill-rule="nonzero"/><path fill="rgb(100%, 100%, 100%)" d="M 0 0.140625 L 418.996094 0.140625 L 418.996094 297.710938 L 0 297.710938 Z M 0 0.140625 " fill-opacity="1" fill-rule="nonzero"/><path fill="rgb(100%, 100%, 100%)" d="M 0 0.140625 L 418.996094 0.140625 L 418.996094 297.710938 L 0 297.710938 Z M 0 0.140625 " fill-opacity="1" fill-rule="nonzero"/><path fill="rgb(100%, 100%, 100%)" d="M 0 0.140625 L 418.996094 0.140625 L 418.996094 297.710938 L 0 297.710938 Z M 0 0.140625 " fill-opacity="1" fill-rule="nonzero"/></g><g clip-path="url(#id2)"><path fill="rgb(16.079712%, 59.21936%, 25.099182%)" d="M 368.164062 6.261719 C 363.703125 5.105469 359.242188 3.953125 354.785156 2.796875 C 354.441406 2.605469 354.011719 2.523438 353.515625 2.617188 C 353.289062 2.640625 353.078125 2.703125 352.890625 2.796875 C 352.023438 3.074219 351.167969 3.386719 350.316406 3.703125 C 347.410156 4.777344 344.550781 5.960938 341.730469 7.214844 C 337.488281 9.101562 333.335938 11.160156 329.261719 13.335938 C 323.785156 16.265625 318.453125 19.417969 313.261719 22.757812 C 306.777344 26.921875 300.503906 31.375 294.453125 36.058594 C 287.394531 41.527344 280.640625 47.320312 274.191406 53.386719 C 266.765625 60.375 259.746094 67.730469 253.136719 75.378906 C 245.636719 84.0625 238.644531 93.101562 232.167969 102.449219 C 224.871094 112.988281 218.230469 123.90625 212.199219 135.097656 C 205.414062 147.699219 199.398438 160.652344 194.082031 173.835938 C 193.050781 176.402344 192.042969 178.976562 191.0625 181.558594 C 187.632812 178.890625 184.203125 176.21875 180.773438 173.546875 C 171.785156 166.546875 162.792969 159.546875 153.804688 152.546875 C 145.542969 146.113281 137.28125 139.679688 129.015625 133.246094 C 126.917969 131.609375 124.816406 129.976562 122.71875 128.339844 C 122.179688 127.921875 121.710938 127.523438 121.046875 127.273438 C 118.964844 126.488281 116.808594 125.472656 114.640625 124.921875 C 113.816406 124.714844 112.78125 124.996094 111.949219 125.125 C 110.496094 125.347656 109.046875 125.570312 107.597656 125.792969 C 106.683594 125.933594 105.449219 125.925781 104.6875 126.464844 C 104.265625 126.761719 104.070312 127.144531 103.820312 127.550781 C 101.503906 131.339844 99.183594 135.125 96.867188 138.910156 C 94.285156 143.128906 91.703125 147.347656 89.117188 151.566406 C 88.515625 152.554688 87.828125 153.371094 88.039062 154.5625 C 88.28125 155.945312 88.578125 157.320312 88.851562 158.699219 C 89.886719 163.972656 90.921875 169.246094 91.957031 174.515625 C 92.273438 176.140625 92.523438 177.792969 92.914062 179.402344 C 93.144531 180.347656 93.847656 180.839844 94.78125 181.1875 C 95.597656 181.488281 96.414062 181.789062 97.226562 182.09375 C 97.515625 182.207031 97.804688 182.316406 98.09375 182.425781 C 98.25 182.488281 98.410156 182.546875 98.566406 182.609375 C 98.648438 182.640625 98.730469 182.671875 98.8125 182.703125 C 98.828125 182.707031 98.835938 182.710938 98.847656 182.714844 C 99.664062 183.03125 100.484375 183.351562 101.296875 183.675781 C 105.933594 185.511719 110.527344 187.429688 115.085938 189.417969 C 128.765625 195.390625 142.148438 201.964844 155.054688 209.25 C 170.242188 217.824219 184.882812 227.394531 197.871094 238.636719 C 200.988281 241.328125 203.996094 244.125 206.878906 247.027344 C 207.878906 248.03125 209.949219 247.550781 210.265625 246.207031 C 210.667969 244.511719 211.125 242.820312 211.582031 241.136719 C 212.859375 236.449219 214.242188 231.785156 215.699219 227.140625 C 217.921875 220.066406 220.316406 213.035156 222.867188 206.054688 C 226.101562 197.195312 229.589844 188.40625 233.328125 179.714844 C 237.628906 169.71875 242.265625 159.847656 247.269531 150.132812 C 252.757812 139.46875 258.683594 128.988281 265.105469 118.769531 C 271.800781 108.121094 279.03125 97.75 286.890625 87.789062 C 294.886719 77.65625 303.558594 67.960938 312.972656 58.90625 C 322.402344 49.835938 332.585938 41.382812 343.582031 33.933594 C 349.136719 30.171875 354.886719 26.652344 360.828125 23.425781 C 362.195312 22.6875 364.238281 22.027344 364.886719 20.644531 C 365.105469 20.175781 365.261719 19.671875 365.449219 19.191406 C 366.300781 16.996094 367.152344 14.800781 368.003906 12.601562 C 368.53125 11.25 369.054688 9.898438 369.578125 8.546875 C 369.949219 7.59375 369.15625 6.515625 368.164062 6.261719 " fill-opacity="1" fill-rule="nonzero"/></g><g clip-path="url(#id3)"><path fill="rgb(16.079712%, 59.21936%, 25.099182%)" d="M 306.960938 72.023438 C 301.398438 77.949219 295.976562 84.246094 290.769531 90.847656 C 290.621094 91.035156 290.476562 91.222656 290.328125 91.410156 C 302.28125 109.402344 309.253906 130.976562 309.253906 154.144531 C 309.253906 216.835938 258.234375 267.835938 195.523438 267.835938 C 132.816406 267.835938 81.796875 216.835938 81.796875 154.144531 C 81.796875 91.457031 132.816406 40.453125 195.523438 40.453125 C 219.4375 40.453125 241.648438 47.871094 259.980469 60.523438 C 263.523438 56.828125 267.140625 53.242188 270.804688 49.789062 C 273.222656 47.519531 275.675781 45.289062 278.164062 43.105469 C 269.296875 36.496094 259.679688 30.984375 249.410156 26.644531 C 232.335938 19.425781 214.207031 15.765625 195.523438 15.765625 C 176.84375 15.765625 158.714844 19.425781 141.640625 26.644531 C 125.15625 33.613281 110.351562 43.589844 97.644531 56.296875 C 84.933594 69 74.957031 83.796875 67.984375 100.277344 C 60.761719 117.34375 57.097656 135.46875 57.097656 154.144531 C 57.097656 172.820312 60.761719 190.945312 67.984375 208.015625 C 74.953125 224.492188 84.933594 239.289062 97.644531 251.996094 C 110.351562 264.699219 125.152344 274.675781 141.640625 281.644531 C 158.714844 288.867188 176.84375 292.527344 195.523438 292.527344 C 214.207031 292.527344 232.335938 288.867188 249.410156 281.644531 C 265.894531 274.675781 280.699219 264.699219 293.40625 251.996094 C 306.117188 239.289062 316.097656 224.492188 323.070312 208.015625 C 330.289062 190.945312 333.953125 172.820312 333.953125 154.144531 C 333.953125 135.46875 330.289062 117.347656 323.070312 100.277344 C 318.804688 90.199219 313.414062 80.75 306.960938 72.023438 " fill-opacity="1" fill-rule="nonzero"/></g></svg>